<?xml version="1.0" encoding="UTF-8"?><svg id="Layer_1" xmlns="http://www.w3.org/2000/svg" viewBox="0 0 344 450"><defs><style>.cls-1,.cls-2,.cls-3{fill:#fff;}.cls-4{fill:#c4951f;}.cls-4,.cls-2{fill-rule:evenodd;}.cls-3{font-family:DINNextLTArabic-Medium, 'DIN Next LT Arabic';font-size:63.4px;font-weight:500;}</style></defs><g><g><g><path class="cls-2" d="M279.14,196.87c-34.89,16-89.8,28.91-101.13,63.54,3.01-42.56,59.33-50.78,101.13-63.54Z"/><path class="cls-2" d="M177.85,277.82c0,.07,0,.14,0,.21,0-.07,0-.14,0-.21-.07-1.52-.07-3,0-4.44,.07,1.45,.07,2.93,0,4.44Z"/><g><path class="cls-1" d="M211,215.19l-.13-61.02c0-1.4-.58-2.68-1.51-3.6-.93-.93-2.2-1.5-3.6-1.5h-55.3c-1.4,0-2.68,.57-3.6,1.5-.94,.93-1.51,2.2-1.51,3.6l.13,61.06c-.12-.06-.25-.1-.39-.15-.61-.24-1.21-.46-1.83-.69-1.22-.45-2.46-.89-3.7-1.32l-.12-58.89c0-3.03,1.23-5.8,3.23-7.78,2.01-2.01,4.76-3.24,7.79-3.24h55.3c3.03,0,5.78,1.23,7.78,3.24,2.01,1.98,3.24,4.75,3.24,7.78l.13,58.86-.08,.03-5.83,2.13Z"/><path class="cls-2" d="M165.47,151.94h32.56c1.07,0,1.94,.87,1.94,1.94h0c0,1.07-.87,1.94-1.94,1.94h-32.56c-1.07,0-1.94-.87-1.94-1.94h0c0-1.07,.87-1.94,1.94-1.94h0Z"/><path class="cls-2" d="M158.42,151.94c1.21,0,2.19,.98,2.19,2.19s-.98,2.19-2.19,2.19-2.19-.98-2.19-2.19,.98-2.19,2.19-2.19h0Z"/></g><g><g><path class="cls-4" d="M325.01,201.72c-21.12,10.88-42.78,22.08-64.49,33.35-27.68,14.36-55.45,28.81-82.27,42.76-.13,.07-.27,.14-.41,.21,0-.07,0-.14,0-.21-.07-1.52-.07-3,0-4.44h0c2.05-41.73,59.97-54.03,98.02-71.19,5.48-2.47,10.54-5.04,14.97-7.81l34.18,7.34Z"/><path class="cls-4" d="M279.14,196.87c-41.8,12.77-98.12,20.98-101.13,63.54,11.33-34.64,66.24-47.55,101.13-63.54Z"/></g><g><path class="cls-4" d="M177.85,277.82c0,.07,0,.14,0,.21-.13-.07-.27-.14-.41-.21-26.83-13.95-54.59-28.4-82.28-42.76-21.71-11.27-43.37-22.47-64.49-33.35l34.18-7.34c4.43,2.77,9.5,5.35,14.97,7.81,38.05,17.16,95.96,29.46,98.02,71.18h0c.07,1.45,.07,2.93,0,4.45Z"/><path class="cls-4" d="M76.53,196.87c41.8,12.77,98.12,20.98,101.13,63.54-11.33-34.64-66.24-47.55-101.13-63.54Z"/></g></g><g><g><path class="cls-4" d="M177.84,273.38c.07,1.45,.07,2.93,0,4.44,0,.07,0,.14,0,.21,0-.07,0-.14,0-.21-.07-1.52-.07-3,0-4.44Z"/><path class="cls-4" d="M279.14,196.87c-34.89,16-89.8,28.91-101.13,63.54,3.01-42.56,59.33-50.78,101.13-63.54Z"/></g><g><path class="cls-4" d="M177.85,277.82c0,.07,0,.14,0,.21,0-.07,0-.14,0-.21-.07-1.52-.07-3,0-4.44,.07,1.45,.07,2.93,0,4.44Z"/><path class="cls-4" d="M177.84,273.38c-.07,1.45-.07,2.93,0,4.44,0,.07,0,.14,0,.21,0-.07,0-.14,0-.21,.07-1.52,.06-3,0-4.44Z"/></g></g><g><path class="cls-2" d="M225.67,167.39c1.47,0,2.65,1.18,2.65,2.65,0-1.47,1.18-2.65,2.65-2.65-1.47,0-2.65-1.18-2.65-2.65,0,1.47-1.18,2.65-2.65,2.65Z"/><path class="cls-2" d="M226.43,177.04c3.01,0,5.45,2.44,5.45,5.46,0-3.01,2.44-5.46,5.46-5.46-3.01,0-5.46-2.44-5.46-5.45,0,3.01-2.44,5.45-5.45,5.45Z"/></g><path class="cls-2" d="M121.17,184.99c3.15,0,5.7,2.55,5.7,5.7,0-3.15,2.55-5.7,5.7-5.7-3.15,0-5.7-2.56-5.7-5.7,0,3.15-2.55,5.7-5.7,5.7Z"/></g><path class="cls-1" d="M188.03,195.86s-.24-1.15-1.19-1.16c-1.08,.01-1.32,.84-1.35,1.03v2.15h-.58v-3.42c-.01-.09-.16-1.13-1.3-1.13s-1.33,.95-1.35,1.06v3.49h-.58v-4.07c-.01-.09-.15-1.15-1.3-1.15-1.04,0-1.28,.8-1.34,1.02v4.2h-.58v-9.91c-.01-.09-.16-1.15-1.3-1.15s-1.34,.96-1.37,1.08v14.34s-.53-.94-.53-.94c-.06-.12-1.55-2.71-1.93-3.49-.27-.56-.86-1.03-1.43-1.03-.1,0-.22,.02-.32,.06-.62,.21-.95,1.18-.76,1.79,.22,.72,1.55,4.06,2.29,5.8,.86,2,3.09,4.84,3.63,4.84h9.2c.47,0,1.27-1.45,1.89-4.22,.45-2.01,.21-9.12,.21-9.18Z"/></g><path class="cls-1" d="M173.9,107.72s.02,.07,.04,.11c-1.43,.96-7.76,1.76-4.69,3.76,2.94-.38,5.7-2.15,8.52-3.08,2.97-.12,5.8,2.1,8.67,2.85,.93,.36,1.69,.21,2-.39,.37-2.02-4.13-2.14-5.65-3.25,6.75-.76,16.25,2.43,20.46-3.51,2.47-3.64,.63-10.23-5.47-8.7-6.73,1.22-13.41,3.7-20.21,4.19-6.31-1.4-12.61-2.85-18.92-4.26-2.71-.61-5.46,.86-5.89,3.27-2.09,11.32,12.59,8.86,21.13,9.02Zm8.44-10.87s.06,.08,.09,.12c4.23-.96,8.46-1.92,12.73-2.9-1.48-3.44-2.91-6.8-4.36-10.15-.44-2.18-1.7-3.29-4.23-3.77-2.6,.26-4.8,2.66-7.2,3.71-2.56,.87-5.61-2.73-8.03-3.61-.83-.48-4.07,.75-4.38,1.53-1.74,4.12-3.48,8.17-5.26,12.29,4.28,.97,8.5,1.93,12.72,2.89-1.01-1.6-4.06-2.57-3.72-4.48,1.12-1.52,1.12-6.27,3.56-6.16,.68,.21,.87,.73,.56,1.53-3.02,6.36-1.16,5.03,3.55,9.63,5.21-4.64,6.48-3.49,3.53-9.93-.28-.75-.06-1.25,.62-1.46,2.34-.05,2.11,3.69,3.1,5.09,.89,2.4,1.11,1.8-.99,3.65-.77,.67-1.54,1.34-2.31,2.01Zm-3.74-19.48c5.19-.63,8.58-5.89,8.75-8.84h-17.89c.78,4.02,3.75,8.1,8.83,8.84-1.71,.6-3.25,1.15-4.89,1.72,5.64,3.42,4.49,3.42,10.07-.01-1.66-.58-3.19-1.12-4.87-1.71Zm8.77-10.85c-1.42-9.07-17-8.09-17.56,0h17.56Z"/><path class="cls-1" d="M247.39,134.1s-.03,.07-.05,.1c-1.69-.33-6.73-4.24-5.97-.66,2.35,1.8,5.56,2.51,8.2,3.84,2.18,2.01,2.61,5.58,4.11,8.15,.4,.91,1.04,1.34,1.69,1.14,1.69-1.17-1.41-4.44-1.69-6.29,5.31,4.24,9.78,13.21,16.95,11.98,4.33-.83,7.68-6.79,2.29-10.02-5.62-3.89-12.1-6.86-17.25-11.33-3.47-5.45-6.9-10.93-10.36-16.39-1.49-2.34-4.47-3.25-6.47-1.85-9.48,6.52,2.64,15.17,8.56,21.32Zm13.66-1.72c0,.05-.01,.1-.02,.15,3.67,2.31,7.34,4.62,11.05,6.95,1.39-3.48,2.75-6.87,4.1-10.26,1.23-1.85,1.13-3.53-.33-5.66-2.02-1.65-5.28-1.52-7.71-2.46-2.42-1.2-2.04-5.9-3.13-8.23-.25-.93-3.41-2.35-4.18-2.02-4.14,1.68-8.24,3.31-12.41,4.97,2.34,3.72,4.65,7.38,6.95,11.04,.42-1.85-1.05-4.69,.54-5.8,1.87-.28,5.22-3.64,6.87-1.84,.33,.63,.09,1.13-.69,1.48-6.63,2.37-4.38,2.74-4.3,9.32,6.96,.4,7.06,2.11,9.52-4.52,.33-.73,.84-.93,1.47-.59,1.69,1.61-1.12,4.1-1.41,5.79-1.06,2.33-.49,2.06-3.28,1.88-1.02-.06-2.04-.14-3.06-.21Zm11.12-16.42c4.11,3.22,10.23,1.91,12.44-.06-4.21-4.21-8.42-8.42-12.65-12.65-2.3,3.4-3.07,8.38,0,12.49-1.64-.78-3.11-1.49-4.67-2.24,1.57,6.41,.76,5.59,7.13,7.11-.76-1.58-1.46-3.05-2.23-4.65Zm13.87-1.47c5.41-7.42-6.3-17.74-12.42-12.42,4.13,4.13,8.25,8.25,12.42,12.42Z"/><path class="cls-1" d="M103.28,141.02s.07,.03,.1,.05c-.33,1.69-4.24,6.73-.66,5.97,1.8-2.35,2.51-5.56,3.84-8.2,2.01-2.18,5.58-2.61,8.15-4.11,.91-.4,1.34-1.04,1.14-1.69-1.17-1.69-4.44,1.41-6.29,1.69,4.24-5.31,13.21-9.78,11.98-16.95-.83-4.33-6.79-7.68-10.02-2.29-3.89,5.62-6.86,12.1-11.33,17.25-5.45,3.47-10.93,6.9-16.39,10.36-2.34,1.49-3.25,4.47-1.85,6.47,6.52,9.48,15.17-2.64,21.32-8.56Zm-1.72-13.66c.05,0,.1,.01,.15,.02,2.31-3.67,4.62-7.34,6.95-11.05-3.48-1.39-6.87-2.75-10.26-4.1-1.85-1.23-3.53-1.13-5.66,.33-1.65,2.02-1.52,5.28-2.46,7.71-1.2,2.42-5.9,2.04-8.23,3.13-.93,.25-2.35,3.41-2.02,4.18,1.68,4.14,3.31,8.24,4.97,12.41,3.72-2.34,7.38-4.65,11.04-6.95-1.85-.42-4.69,1.05-5.8-.54-.28-1.87-3.64-5.22-1.84-6.87,.63-.33,1.13-.09,1.48,.69,2.37,6.63,2.74,4.38,9.32,4.3,.4-6.96,2.11-7.06-4.52-9.52-.73-.33-.93-.84-.59-1.47,1.61-1.69,4.1,1.12,5.79,1.41,2.33,1.06,2.06,.49,1.88,3.28-.06,1.02-.14,2.04-.21,3.06Zm-16.42-11.12c3.22-4.11,1.91-10.23-.06-12.44-4.21,4.21-8.42,8.42-12.65,12.65,3.4,2.3,8.38,3.07,12.49,0-.78,1.64-1.49,3.11-2.24,4.67,6.41-1.57,5.59-.76,7.11-7.13-1.58,.76-3.05,1.46-4.65,2.23Zm-1.47-13.87c-7.42-5.41-17.74,6.3-12.42,12.42,4.13-4.13,8.25-8.25,12.42-12.42Z"/><path class="cls-1" d="M213.27,113.6s0,.08,0,.12c-1.69,.34-7.84-1.34-5.77,1.68,2.86,.77,6.09,.19,9.05,.41,2.79,1.02,4.55,4.16,6.91,5.95,.72,.69,1.48,.84,2,.41,1.12-1.73-3-3.56-3.97-5.17,6.53,1.88,14.09,8.46,20.24,4.58,3.68-2.42,4.5-9.21-1.72-10.13-6.69-1.44-13.8-1.71-20.27-3.86-5.29-3.71-10.56-7.46-15.85-11.17-2.27-1.6-5.37-1.3-6.69,.77-6.26,9.66,8.24,13,16.07,16.42Zm11.96-6.82s.03,.1,.04,.15c4.27,.73,8.55,1.46,12.87,2.19-.05-3.74-.09-7.4-.14-11.05,.42-2.18-.31-3.69-2.47-5.1-2.5-.75-5.46,.62-8.07,.67-2.69-.18-4.14-4.67-6.04-6.4-.59-.76-4.05-.87-4.63-.26-3.18,3.14-6.34,6.21-9.56,9.34,3.58,2.54,7.12,5.04,10.65,7.54-.32-1.87-2.76-3.93-1.72-5.56,1.62-.97,3.43-5.36,5.64-4.33,.54,.46,.52,1.01-.07,1.63-5.22,4.72-3,4.2-.41,10.26,6.59-2.29,7.33-.75,7.07-7.82,.03-.8,.42-1.18,1.13-1.11,2.18,.84,.54,4.22,.92,5.89-.09,2.56,.33,2.09-2.31,2.99-.97,.33-1.94,.65-2.91,.97Zm3.99-19.43c5.03,1.41,10.18-2.15,11.47-4.82-5.5-2.28-11-4.55-16.53-6.85-.82,4.02,.37,8.92,4.77,11.54-1.81-.1-3.44-.18-5.17-.28,3.9,5.32,2.84,4.88,9.31,3.84-1.31-1.17-2.52-2.26-3.84-3.44Zm12.26-6.66c2.16-8.92-12.61-13.98-16.22-6.72,5.39,2.23,10.78,4.47,16.22,6.72Z"/><path class="cls-1" d="M271.07,166.09s-.06,.05-.09,.08c-1.44-.96-4.6-6.49-5.27-2.89,1.48,2.57,4.17,4.44,6.11,6.69,1.25,2.69,.28,6.16,.68,9.1,.02,.99,.45,1.64,1.12,1.7,2.01-.43,.4-4.64,.85-6.46,3.28,5.95,3.98,15.95,11.07,17.56,4.31,.89,9.7-3.34,5.95-8.38-3.71-5.75-8.55-10.97-11.6-17.07-1.12-6.37-2.2-12.74-3.3-19.11-.48-2.74-2.88-4.72-5.27-4.19-11.26,2.4-3.37,15.02-.25,22.97Zm13.28,3.64s-.05,.09-.08,.13c2.51,3.54,5.01,7.08,7.55,10.65,2.61-2.68,5.16-5.29,7.71-7.91,1.84-1.24,2.39-2.83,1.86-5.35-1.23-2.3-4.29-3.42-6.18-5.23-1.78-2.03,.38-6.23,.26-8.8,.12-.95-2.25-3.48-3.09-3.46-4.47-.03-8.88-.09-13.36-.15,.74,4.33,1.47,8.59,2.2,12.86,1.09-1.55,.83-4.73,2.71-5.15,1.83,.46,6.22-1.36,7.05,.93,.06,.71-.35,1.08-1.2,1.11-7.03-.35-5.09,.85-7.54,6.97,6.28,3.04,5.71,4.65,10.53-.54,.58-.55,1.13-.54,1.58,.01,.94,2.14-2.6,3.36-3.52,4.81-1.87,1.74-1.24,1.71-3.75,.49-.92-.45-1.83-.91-2.74-1.37Zm16.56-10.91c2.56,4.55,8.72,5.68,11.51,4.7-2.28-5.5-4.55-11-6.85-16.53-3.42,2.26-6.05,6.57-4.79,11.54-1.21-1.35-2.3-2.56-3.46-3.85-1,6.52-1.44,5.45,3.86,9.3-.1-1.75-.18-3.37-.28-5.15Zm13.38,3.95c7.84-4.78,.97-18.8-6.72-16.22,2.23,5.39,4.47,10.78,6.72,16.22Z"/><path class="cls-1" d="M82.78,175.15s.08,0,.12,0c.34,1.69-1.34,7.84,1.68,5.77,.77-2.86,.19-6.09,.41-9.05,1.02-2.79,4.16-4.55,5.95-6.91,.69-.72,.84-1.48,.41-2-1.73-1.12-3.56,3-5.17,3.97,1.88-6.53,8.46-14.09,4.58-20.24-2.42-3.68-9.21-4.5-10.13,1.72-1.44,6.69-1.71,13.8-3.86,20.27-3.71,5.29-7.46,10.56-11.17,15.85-1.6,2.27-1.3,5.37,.77,6.69,9.66,6.26,13-8.24,16.42-16.07Zm-6.82-11.96s.1-.03,.15-.04c.73-4.27,1.46-8.55,2.19-12.87-3.74,.05-7.4,.09-11.05,.14-2.18-.42-3.69,.31-5.1,2.47-.75,2.5,.62,5.46,.67,8.07-.18,2.69-4.67,4.14-6.4,6.04-.76,.59-.87,4.05-.26,4.63,3.14,3.18,6.21,6.34,9.34,9.56,2.54-3.58,5.04-7.12,7.54-10.65-1.87,.32-3.93,2.76-5.56,1.72-.97-1.62-5.36-3.43-4.33-5.64,.46-.54,1.01-.52,1.63,.07,4.72,5.22,4.2,3,10.26,.41-2.29-6.59-.75-7.33-7.82-7.07-.8-.03-1.18-.42-1.11-1.13,.84-2.18,4.22-.54,5.89-.92,2.56,.09,2.09-.33,2.99,2.31,.33,.97,.65,1.94,.97,2.91Zm-19.43-3.99c1.41-5.03-2.15-10.18-4.82-11.47-2.28,5.5-4.55,11-6.85,16.53,4.02,.82,8.92-.37,11.54-4.77-.1,1.81-.18,3.44-.28,5.17,5.32-3.9,4.88-2.84,3.84-9.31-1.17,1.31-2.26,2.52-3.44,3.84Zm-6.66-12.26c-8.92-2.16-13.98,12.61-6.72,16.22,2.23-5.39,4.47-10.78,6.72-16.22Z"/><path class="cls-1" d="M135.28,117.35s.05,.06,.08,.09c-.96,1.44-6.49,4.6-2.89,5.27,2.57-1.48,4.44-4.17,6.69-6.11,2.69-1.25,6.16-.28,9.1-.68,.99-.02,1.64-.45,1.7-1.12-.43-2.01-4.64-.4-6.46-.85,5.95-3.28,15.95-3.98,17.56-11.07,.89-4.31-3.34-9.7-8.38-5.95-5.75,3.71-10.97,8.55-17.07,11.6-6.37,1.12-12.74,2.2-19.11,3.3-2.74,.48-4.72,2.88-4.19,5.27,2.4,11.26,15.02,3.37,22.97,.25Zm3.64-13.28s.09,.05,.13,.08c3.54-2.51,7.08-5.01,10.65-7.55-2.68-2.61-5.29-5.16-7.91-7.71-1.24-1.84-2.83-2.39-5.35-1.86-2.3,1.23-3.42,4.29-5.23,6.18-2.03,1.78-6.23-.38-8.8-.26-.95-.12-3.48,2.25-3.46,3.09-.03,4.47-.09,8.88-.15,13.36,4.33-.74,8.59-1.47,12.86-2.2-1.55-1.09-4.73-.83-5.15-2.71,.46-1.83-1.36-6.22,.93-7.05,.71-.06,1.08,.35,1.11,1.2-.35,7.03,.85,5.09,6.97,7.54,3.04-6.28,4.65-5.71-.54-10.53-.55-.58-.54-1.13,.01-1.58,2.14-.94,3.36,2.6,4.81,3.52,1.74,1.87,1.71,1.24,.49,3.75-.45,.92-.91,1.83-1.37,2.74Zm-10.91-16.56c4.55-2.56,5.68-8.72,4.7-11.51-5.5,2.28-11,4.55-16.53,6.85,2.26,3.42,6.57,6.05,11.54,4.79-1.35,1.21-2.56,2.3-3.85,3.46,6.52,1,5.45,1.44,9.3-3.86-1.75,.1-3.37,.18-5.15,.28Zm3.95-13.38c-4.78-7.84-18.8-.97-16.22,6.72,5.39-2.23,10.78-4.47,16.22-6.72Z"/></g><g><text class="cls-3" transform="translate(70.16 410.9) scale(.92 1)"><tspan x="0" y="0">Alkuttab</tspan></text><text class="cls-3" transform="translate(56.2 348.82) scale(.92 1)"><tspan x="0" y="0">ْْاّّــــــــــُُلا</tspan></text></g></svg>