<?xml version="1.0" encoding="utf-8"?>
<!-- Generator: Adobe Illustrator 27.0.1, SVG Export Plug-In . SVG Version: 6.00 Build 0)  -->
<svg version="1.1" id="Layer_1" xmlns="http://www.w3.org/2000/svg" xmlns:xlink="http://www.w3.org/1999/xlink" x="0px" y="0px"
	 viewBox="0 0 358 412" style="enable-background:new 0 0 358 412;" xml:space="preserve">
<style type="text/css">
	.st0{display:none;fill:#D4AF37;}
	.st1{fill-rule:evenodd;clip-rule:evenodd;fill:#FFFFFF;}
	.st2{fill-rule:evenodd;clip-rule:evenodd;fill:#2F190D;}
	.st3{fill-rule:evenodd;clip-rule:evenodd;fill:#006860;}
	.st4{fill:#FFFFFF;}
	.st5{fill-rule:evenodd;clip-rule:evenodd;fill:#C4951F;}
	.st6{fill-rule:evenodd;clip-rule:evenodd;fill:#00A69C;}
	.st7{fill:none;}
	.st8{fill:#006860;}
</style>
<g>
	<g>
		<g>
			<g>
				<g>
					<path class="st2" d="M279.64,166.92c-34.89,16-89.8,28.91-101.13,63.54C181.52,187.9,237.84,179.69,279.64,166.92z"/>
					<path class="st2" d="M178.35,247.87c0,0.07,0,0.14-0.01,0.21c0-0.07-0.01-0.14-0.01-0.21c-0.07-1.52-0.07-3,0.01-4.44
						C178.41,244.87,178.41,246.35,178.35,247.87z"/>
					<g>
						<path class="st3" d="M274.5,164.26c-5.59,1.7-12.34,3.68-17.33,5.11c-8.7,2.48-17.53,5.02-26,7.9
							c-1.14,0.37-2.26,0.78-3.36,1.17l-0.1,0.04c-1.55,0.54-3.09,1.11-4.6,1.69c-0.78,0.3-1.55,0.6-2.33,0.91l-0.51,0.22
							l-5.96,2.54c-3.54,1.6-6.93,3.35-10.17,5.23c-13.42,7.87-21.93,17.53-25.74,29.27c-3.79-11.74-12.3-21.39-25.71-29.27
							c-3.18-1.85-6.53-3.57-10.01-5.14c-1.96-0.91-3.96-1.76-5.99-2.57c-0.15-0.07-0.33-0.13-0.49-0.21
							c-0.78-0.33-1.54-0.61-2.33-0.93c-1.57-0.6-3.14-1.18-4.72-1.75c-1.11-0.4-2.21-0.79-3.33-1.17
							c-8.53-2.9-17.42-5.45-26.16-7.95c-4.65-1.33-10.8-3.17-16.14-4.8c8.22-45.28,47.87-79.62,95.53-79.62
							C226.58,84.95,266.15,119.12,274.5,164.26z"/>
						<path class="st4" d="M211.49,185.24l-0.13-61.02c0-1.4-0.58-2.68-1.51-3.6c-0.93-0.93-2.2-1.5-3.6-1.5h-55.3
							c-1.4,0-2.68,0.57-3.6,1.5c-0.94,0.93-1.51,2.2-1.51,3.6l0.13,61.06c-0.12-0.06-0.25-0.1-0.39-0.15
							c-0.61-0.24-1.21-0.46-1.83-0.69c-1.22-0.45-2.46-0.89-3.7-1.32l-0.12-58.89c0-3.03,1.23-5.8,3.23-7.78
							c2.01-2.01,4.76-3.24,7.79-3.24h55.3c3.03,0,5.78,1.23,7.78,3.24c2.01,1.98,3.24,4.75,3.24,7.78l0.13,58.86l-0.08,0.03
							L211.49,185.24z"/>
						<path class="st1" d="M165.96,121.99h32.56c1.07,0,1.94,0.87,1.94,1.94v0c0,1.07-0.87,1.94-1.94,1.94h-32.56
							c-1.07,0-1.94-0.87-1.94-1.94v0C164.02,122.86,164.89,121.99,165.96,121.99L165.96,121.99z"/>
						<path class="st1" d="M158.92,121.99c1.21,0,2.19,0.98,2.19,2.19c0,1.21-0.98,2.19-2.19,2.19c-1.21,0-2.19-0.98-2.19-2.19
							C156.73,122.97,157.71,121.99,158.92,121.99L158.92,121.99z"/>
					</g>
					<g>
						<g>
							<path class="st5" d="M325.51,171.76c-21.12,10.88-42.78,22.08-64.49,33.35c-27.68,14.36-55.45,28.81-82.27,42.76
								c-0.13,0.07-0.27,0.14-0.41,0.21c0-0.07-0.01-0.14-0.01-0.21c-0.07-1.52-0.07-3,0.01-4.44c0,0,0,0,0,0
								c2.05-41.72,59.97-54.02,98.02-71.18c5.48-2.47,10.54-5.04,14.97-7.81L325.51,171.76z"/>
							<path class="st5" d="M279.64,166.92c-41.8,12.77-98.12,20.98-101.13,63.54C189.84,195.83,244.75,182.92,279.64,166.92z"/>
						</g>
						<g>
							<path class="st5" d="M178.35,247.87c0,0.07,0,0.14-0.01,0.21c-0.13-0.07-0.27-0.14-0.41-0.21
								c-26.83-13.95-54.59-28.4-82.28-42.76c-21.71-11.27-43.37-22.47-64.49-33.35l34.18-7.34c4.43,2.77,9.5,5.35,14.97,7.81
								c38.05,17.16,95.96,29.46,98.02,71.18c0,0,0,0,0,0C178.41,244.87,178.41,246.35,178.35,247.87z"/>
							<path class="st5" d="M77.03,166.92c41.8,12.77,98.12,20.98,101.13,63.54C166.83,195.83,111.92,182.92,77.03,166.92z"/>
						</g>
					</g>
					<g>
						<g>
							<path class="st5" d="M178.34,243.43c0.07,1.45,0.07,2.93,0.01,4.44c0,0.07,0,0.14-0.01,0.21c0-0.07-0.01-0.14-0.01-0.21
								C178.26,246.35,178.26,244.87,178.34,243.43z"/>
							<path class="st5" d="M279.64,166.92c-34.89,16-89.8,28.91-101.13,63.54C181.52,187.9,237.84,179.69,279.64,166.92z"/>
						</g>
						<g>
							<path class="st5" d="M178.35,247.87c0,0.07,0,0.14-0.01,0.21c0-0.07-0.01-0.14-0.01-0.21c-0.07-1.52-0.07-3,0.01-4.44
								C178.41,244.87,178.41,246.35,178.35,247.87z"/>
							<path class="st6" d="M178.34,243.43c-0.07,1.45-0.07,2.93-0.01,4.44c0,0.07,0,0.14,0.01,0.21c0-0.07,0.01-0.14,0.01-0.21
								C178.41,246.35,178.41,244.87,178.34,243.43z"/>
						</g>
					</g>
					<g>
						<path class="st1" d="M226.17,137.43c1.47,0,2.65,1.18,2.65,2.65c0-1.47,1.18-2.65,2.65-2.65c-1.47,0-2.65-1.18-2.65-2.65
							C228.82,136.25,227.63,137.43,226.17,137.43z"/>
						<path class="st1" d="M226.93,147.09c3.01,0,5.45,2.44,5.45,5.46c0-3.01,2.44-5.46,5.46-5.46c-3.01,0-5.46-2.44-5.46-5.45
							C232.38,144.65,229.94,147.09,226.93,147.09z"/>
					</g>
					<path class="st1" d="M121.67,155.04c3.15,0,5.7,2.55,5.7,5.7c0-3.15,2.55-5.7,5.7-5.7c-3.15,0-5.7-2.56-5.7-5.7
						C127.37,152.48,124.82,155.04,121.67,155.04z"/>
				</g>
				<g>
					<g>
						<g>
							<path class="st4" d="M188.53,165.91c-0.01-0.01-0.24-1.15-1.19-1.16c-1.08,0.01-1.32,0.84-1.35,1.03v2.15h-0.58v-3.42
								c-0.01-0.09-0.16-1.13-1.3-1.13c-1.15,0-1.33,0.95-1.35,1.06v3.49h-0.58v-4.07c-0.01-0.09-0.15-1.15-1.3-1.15
								c-1.04,0-1.28,0.8-1.34,1.02v4.2h-0.58v-9.91c-0.01-0.09-0.16-1.15-1.3-1.15c-1.16,0-1.34,0.96-1.37,1.08l0.01,14.34
								l-0.54-0.94c-0.06-0.12-1.55-2.71-1.93-3.49c-0.27-0.56-0.86-1.03-1.43-1.03c-0.1,0-0.22,0.02-0.32,0.06
								c-0.62,0.21-0.95,1.18-0.76,1.79c0.22,0.72,1.55,4.06,2.29,5.8c0.86,2,3.09,4.84,3.63,4.84h9.2c0.47,0,1.27-1.45,1.89-4.22
								C188.77,173.08,188.53,165.98,188.53,165.91z"/>
						</g>
					</g>
				</g>
			</g>
		</g>
	</g>
	<g>
		<path class="st8" d="M173.52,77.76c0.01,0.04,0.02,0.07,0.04,0.11c-1.43,0.96-7.76,1.76-4.69,3.76c2.94-0.38,5.7-2.15,8.52-3.08
			c2.97-0.12,5.8,2.1,8.67,2.85c0.93,0.36,1.69,0.21,2-0.39c0.37-2.02-4.13-2.14-5.65-3.25c6.75-0.76,16.25,2.43,20.46-3.51
			c2.47-3.64,0.63-10.23-5.47-8.7c-6.73,1.22-13.41,3.7-20.21,4.19c-6.31-1.4-12.61-2.85-18.92-4.26c-2.71-0.61-5.46,0.86-5.89,3.27
			C150.3,80.06,164.98,77.6,173.52,77.76z M181.96,66.89c0.03,0.04,0.06,0.08,0.09,0.12c4.23-0.96,8.46-1.92,12.73-2.9
			c-1.48-3.44-2.91-6.8-4.36-10.15c-0.44-2.18-1.7-3.29-4.23-3.77c-2.6,0.26-4.8,2.66-7.2,3.71c-2.56,0.87-5.61-2.73-8.03-3.61
			c-0.83-0.48-4.07,0.75-4.38,1.53c-1.74,4.12-3.48,8.17-5.26,12.29c4.28,0.97,8.5,1.93,12.72,2.89c-1.01-1.6-4.06-2.57-3.72-4.48
			c1.12-1.52,1.12-6.27,3.56-6.16c0.68,0.21,0.87,0.73,0.56,1.53c-3.02,6.36-1.16,5.03,3.55,9.63c5.21-4.64,6.48-3.49,3.53-9.93
			c-0.28-0.75-0.06-1.25,0.62-1.46c2.34-0.05,2.11,3.69,3.1,5.09c0.89,2.4,1.11,1.8-0.99,3.65
			C183.51,65.55,182.73,66.22,181.96,66.89z M178.22,47.41c5.19-0.63,8.58-5.89,8.75-8.84c-5.95,0-11.9,0-17.89,0
			c0.78,4.02,3.75,8.1,8.83,8.84c-1.71,0.6-3.25,1.15-4.89,1.72c5.64,3.42,4.49,3.42,10.07-0.01C181.43,48.54,179.9,48,178.22,47.41
			z M186.99,36.56c-1.42-9.07-17-8.09-17.56,0C175.26,36.56,181.1,36.56,186.99,36.56z"/>
		<path class="st8" d="M247.01,104.14c-0.02,0.03-0.03,0.07-0.05,0.1c-1.69-0.33-6.73-4.24-5.97-0.66c2.35,1.8,5.56,2.51,8.2,3.84
			c2.18,2.01,2.61,5.58,4.11,8.15c0.4,0.91,1.04,1.34,1.69,1.14c1.69-1.17-1.41-4.44-1.69-6.29c5.31,4.24,9.78,13.21,16.95,11.98
			c4.33-0.83,7.68-6.79,2.29-10.02c-5.62-3.89-12.1-6.86-17.25-11.33c-3.47-5.45-6.9-10.93-10.36-16.39
			c-1.49-2.34-4.47-3.25-6.47-1.85C228.96,89.35,241.08,97.99,247.01,104.14z M260.67,102.42c-0.01,0.05-0.01,0.1-0.02,0.15
			c3.67,2.31,7.34,4.62,11.05,6.95c1.39-3.48,2.75-6.87,4.1-10.26c1.23-1.85,1.13-3.53-0.33-5.66c-2.02-1.65-5.28-1.52-7.71-2.46
			c-2.42-1.2-2.04-5.9-3.13-8.23c-0.25-0.93-3.41-2.35-4.18-2.02c-4.14,1.68-8.24,3.31-12.41,4.97c2.34,3.72,4.65,7.38,6.95,11.04
			c0.42-1.85-1.05-4.69,0.54-5.8c1.87-0.28,5.22-3.64,6.87-1.84c0.33,0.63,0.09,1.13-0.69,1.48c-6.63,2.37-4.38,2.74-4.3,9.32
			c6.96,0.4,7.06,2.11,9.52-4.52c0.33-0.73,0.84-0.93,1.47-0.59c1.69,1.61-1.12,4.1-1.41,5.79c-1.06,2.33-0.49,2.06-3.28,1.88
			C262.7,102.57,261.69,102.5,260.67,102.42z M271.79,86c4.11,3.22,10.23,1.91,12.44-0.06c-4.21-4.21-8.42-8.42-12.65-12.65
			c-2.3,3.4-3.07,8.38-0.01,12.49c-1.64-0.78-3.11-1.49-4.67-2.24c1.57,6.41,0.76,5.59,7.13,7.11
			C273.26,89.07,272.56,87.61,271.79,86z M285.66,84.54c5.41-7.42-6.3-17.74-12.42-12.42C277.37,76.25,281.5,80.37,285.66,84.54z"/>
		<path class="st8" d="M102.9,111.07c0.04,0.02,0.07,0.03,0.1,0.05c-0.33,1.69-4.24,6.73-0.66,5.97c1.8-2.35,2.51-5.56,3.84-8.2
			c2.01-2.18,5.58-2.61,8.15-4.11c0.91-0.4,1.34-1.04,1.14-1.69c-1.17-1.69-4.44,1.41-6.29,1.69c4.24-5.31,13.21-9.78,11.98-16.95
			c-0.83-4.33-6.79-7.68-10.02-2.29c-3.89,5.62-6.86,12.1-11.33,17.25c-5.45,3.47-10.93,6.9-16.39,10.36
			c-2.34,1.49-3.25,4.47-1.85,6.47C88.1,129.12,96.75,117,102.9,111.07z M101.18,97.41c0.05,0.01,0.1,0.01,0.15,0.02
			c2.31-3.67,4.62-7.34,6.95-11.05c-3.48-1.39-6.87-2.75-10.26-4.1c-1.85-1.23-3.53-1.13-5.66,0.33c-1.65,2.02-1.52,5.28-2.46,7.71
			c-1.2,2.42-5.9,2.04-8.23,3.13c-0.93,0.25-2.35,3.41-2.02,4.18c1.68,4.14,3.31,8.24,4.97,12.41c3.72-2.34,7.38-4.65,11.04-6.95
			c-1.85-0.42-4.69,1.05-5.8-0.54c-0.28-1.87-3.64-5.22-1.84-6.87c0.63-0.33,1.13-0.09,1.48,0.69c2.37,6.63,2.74,4.38,9.32,4.3
			c0.4-6.96,2.11-7.06-4.52-9.52c-0.73-0.33-0.93-0.84-0.59-1.47c1.61-1.69,4.1,1.12,5.79,1.41c2.33,1.06,2.06,0.49,1.88,3.28
			C101.33,95.37,101.25,96.39,101.18,97.41z M84.76,86.29c3.22-4.11,1.91-10.23-0.06-12.44c-4.21,4.21-8.42,8.42-12.65,12.65
			c3.4,2.3,8.38,3.07,12.49,0.01c-0.78,1.64-1.49,3.11-2.24,4.67c6.41-1.57,5.59-0.76,7.11-7.13
			C87.83,84.82,86.37,85.52,84.76,86.29z M83.29,72.41c-7.42-5.41-17.74,6.3-12.42,12.42C75,80.71,79.13,76.58,83.29,72.41z"/>
		<path class="st8" d="M212.89,83.64c0,0.04-0.01,0.08-0.01,0.12c-1.69,0.34-7.84-1.34-5.77,1.68c2.86,0.77,6.09,0.19,9.05,0.41
			c2.79,1.02,4.55,4.16,6.91,5.95c0.72,0.69,1.48,0.84,2,0.41c1.12-1.73-3-3.56-3.97-5.17c6.53,1.88,14.09,8.46,20.24,4.58
			c3.68-2.42,4.5-9.21-1.72-10.13c-6.69-1.44-13.8-1.71-20.27-3.86c-5.29-3.71-10.56-7.46-15.85-11.17c-2.27-1.6-5.37-1.3-6.69,0.77
			C190.55,76.88,205.06,80.23,212.89,83.64z M224.85,76.83c0.01,0.05,0.03,0.1,0.04,0.15c4.27,0.73,8.55,1.46,12.87,2.19
			c-0.05-3.74-0.09-7.4-0.14-11.05c0.42-2.18-0.31-3.69-2.47-5.1c-2.5-0.75-5.46,0.62-8.07,0.67c-2.69-0.18-4.14-4.67-6.04-6.4
			c-0.59-0.76-4.05-0.87-4.63-0.26c-3.18,3.14-6.34,6.21-9.56,9.34c3.58,2.54,7.12,5.04,10.65,7.54c-0.32-1.87-2.76-3.93-1.72-5.56
			c1.62-0.97,3.43-5.36,5.64-4.33c0.54,0.46,0.52,1.01-0.07,1.63c-5.22,4.72-3,4.2-0.41,10.26c6.59-2.29,7.33-0.75,7.07-7.82
			c0.03-0.8,0.42-1.18,1.13-1.11c2.18,0.84,0.54,4.22,0.92,5.89c-0.09,2.56,0.33,2.09-2.31,2.99
			C226.79,76.19,225.82,76.5,224.85,76.83z M228.84,57.4c5.03,1.41,10.18-2.15,11.47-4.82c-5.5-2.28-11-4.55-16.53-6.85
			c-0.82,4.02,0.37,8.92,4.77,11.54c-1.81-0.1-3.44-0.18-5.17-0.28c3.9,5.32,2.84,4.88,9.31,3.84
			C231.38,59.67,230.17,58.59,228.84,57.4z M241.1,50.74c2.16-8.92-12.61-13.98-16.22-6.72C230.26,46.25,235.66,48.48,241.1,50.74z"
			/>
		<path class="st8" d="M270.69,136.14c-0.03,0.03-0.06,0.05-0.09,0.08c-1.44-0.96-4.6-6.49-5.27-2.89c1.48,2.57,4.17,4.44,6.11,6.69
			c1.25,2.69,0.28,6.16,0.68,9.1c0.02,0.99,0.45,1.64,1.12,1.7c2.01-0.43,0.4-4.64,0.85-6.46c3.28,5.95,3.98,15.95,11.07,17.56
			c4.31,0.89,9.7-3.34,5.95-8.38c-3.71-5.75-8.55-10.97-11.6-17.07c-1.12-6.37-2.2-12.74-3.3-19.11c-0.48-2.74-2.88-4.72-5.27-4.19
			C259.68,115.56,267.56,128.19,270.69,136.14z M283.96,139.78c-0.03,0.04-0.05,0.09-0.08,0.13c2.51,3.54,5.01,7.08,7.55,10.65
			c2.61-2.68,5.16-5.29,7.71-7.91c1.84-1.24,2.39-2.83,1.86-5.35c-1.23-2.3-4.29-3.42-6.18-5.23c-1.78-2.03,0.38-6.23,0.26-8.8
			c0.12-0.95-2.25-3.48-3.09-3.46c-4.47-0.03-8.88-0.09-13.36-0.15c0.74,4.33,1.47,8.59,2.2,12.86c1.09-1.55,0.83-4.73,2.71-5.15
			c1.83,0.46,6.22-1.36,7.05,0.93c0.06,0.71-0.35,1.08-1.2,1.11c-7.03-0.35-5.09,0.85-7.54,6.97c6.28,3.04,5.71,4.65,10.53-0.54
			c0.58-0.55,1.13-0.54,1.58,0.01c0.94,2.14-2.6,3.36-3.52,4.81c-1.87,1.74-1.24,1.71-3.75,0.49
			C285.79,140.7,284.88,140.23,283.96,139.78z M300.52,128.87c2.56,4.55,8.72,5.68,11.51,4.7c-2.28-5.5-4.55-11-6.85-16.53
			c-3.42,2.26-6.05,6.57-4.79,11.54c-1.21-1.35-2.3-2.56-3.46-3.85c-1,6.52-1.44,5.45,3.86,9.3
			C300.71,132.27,300.62,130.65,300.52,128.87z M313.9,132.82c7.84-4.78,0.97-18.8-6.72-16.22
			C309.42,121.99,311.65,127.38,313.9,132.82z"/>
		<path class="st8" d="M82.4,145.19c0.04,0,0.08,0.01,0.12,0.01c0.34,1.69-1.34,7.84,1.68,5.77c0.77-2.86,0.19-6.09,0.41-9.05
			c1.02-2.79,4.16-4.55,5.95-6.91c0.69-0.72,0.84-1.48,0.41-2c-1.73-1.12-3.56,3-5.17,3.97c1.88-6.53,8.46-14.09,4.58-20.24
			c-2.42-3.68-9.21-4.5-10.13,1.72c-1.44,6.69-1.71,13.8-3.86,20.27c-3.71,5.29-7.46,10.56-11.17,15.85
			c-1.6,2.27-1.3,5.37,0.77,6.69C75.63,167.53,78.98,153.02,82.4,145.19z M75.58,133.23c0.05-0.01,0.1-0.03,0.15-0.04
			c0.73-4.27,1.46-8.55,2.19-12.87c-3.74,0.05-7.4,0.09-11.05,0.14c-2.18-0.42-3.69,0.31-5.1,2.47c-0.75,2.5,0.62,5.46,0.67,8.07
			c-0.18,2.69-4.67,4.14-6.4,6.04c-0.76,0.59-0.87,4.05-0.26,4.63c3.14,3.18,6.21,6.34,9.34,9.56c2.54-3.58,5.04-7.12,7.54-10.65
			c-1.87,0.32-3.93,2.76-5.56,1.72c-0.97-1.62-5.36-3.43-4.33-5.64c0.46-0.54,1.01-0.52,1.63,0.07c4.72,5.22,4.2,3,10.26,0.41
			c-2.29-6.59-0.75-7.33-7.82-7.07c-0.8-0.03-1.18-0.42-1.11-1.13c0.84-2.18,4.22-0.54,5.89-0.92c2.56,0.09,2.09-0.33,2.99,2.31
			C74.94,131.29,75.26,132.26,75.58,133.23z M56.16,129.24c1.41-5.03-2.15-10.18-4.82-11.47c-2.28,5.5-4.55,11-6.85,16.53
			c4.02,0.82,8.92-0.37,11.54-4.77c-0.1,1.81-0.18,3.44-0.28,5.17c5.32-3.9,4.88-2.84,3.84-9.31
			C58.43,126.7,57.35,127.91,56.16,129.24z M49.49,116.98c-8.92-2.16-13.98,12.61-6.72,16.22C45,127.81,47.24,122.42,49.49,116.98z"
			/>
		<path class="st8" d="M134.9,87.39c0.03,0.03,0.05,0.06,0.08,0.09c-0.96,1.44-6.49,4.6-2.89,5.27c2.57-1.48,4.44-4.17,6.69-6.11
			c2.69-1.25,6.16-0.28,9.1-0.68c0.99-0.02,1.64-0.45,1.7-1.12c-0.43-2.01-4.64-0.4-6.46-0.85c5.95-3.28,15.95-3.98,17.56-11.07
			c0.89-4.31-3.34-9.7-8.38-5.95c-5.75,3.71-10.97,8.55-17.07,11.6c-6.37,1.12-12.74,2.2-19.11,3.3c-2.74,0.48-4.72,2.88-4.19,5.27
			C114.32,98.4,126.95,90.51,134.9,87.39z M138.53,74.12c0.04,0.03,0.09,0.05,0.13,0.08c3.54-2.51,7.08-5.01,10.65-7.55
			c-2.68-2.61-5.29-5.16-7.91-7.71c-1.24-1.84-2.83-2.39-5.35-1.86c-2.3,1.23-3.42,4.29-5.23,6.18c-2.03,1.78-6.23-0.38-8.8-0.26
			c-0.95-0.12-3.48,2.25-3.46,3.09c-0.03,4.47-0.09,8.88-0.15,13.36c4.33-0.74,8.59-1.47,12.86-2.2c-1.55-1.09-4.73-0.83-5.15-2.71
			c0.46-1.83-1.36-6.22,0.93-7.05c0.71-0.06,1.08,0.35,1.11,1.2c-0.35,7.03,0.85,5.09,6.97,7.54c3.04-6.28,4.65-5.71-0.54-10.53
			c-0.55-0.58-0.54-1.13,0.01-1.58c2.14-0.94,3.36,2.6,4.81,3.52c1.74,1.87,1.71,1.24,0.49,3.75
			C139.45,72.29,138.99,73.2,138.53,74.12z M127.62,57.55c4.55-2.56,5.68-8.72,4.7-11.51c-5.5,2.28-11,4.55-16.53,6.85
			c2.26,3.42,6.57,6.05,11.54,4.79c-1.35,1.21-2.56,2.3-3.85,3.46c6.52,1,5.45,1.44,9.3-3.86C131.02,57.37,129.4,57.46,127.62,57.55
			z M131.58,44.18c-4.78-7.84-18.8-0.97-16.22,6.72C120.74,48.66,126.13,46.43,131.58,44.18z"/>
	</g>
</g>
<g>
	<g>
		<g>
			<path class="st8" d="M90.69,338.47c0.12-0.42,0.35-0.63,0.7-0.63h3.8c0.39,0,0.64,0.21,0.76,0.63l13.62,41.84
				c0.12,0.42-0.02,0.63-0.41,0.63h-4.09c-0.39,0-0.64-0.21-0.76-0.63l-3.04-9.38H85.2l-3.04,9.38c-0.16,0.42-0.41,0.63-0.76,0.63
				h-4.09c-0.39,0-0.53-0.21-0.41-0.63L90.69,338.47z M99.58,365.66l-6.25-19.53h-0.12l-6.31,19.53H99.58z"/>
			<path class="st8" d="M122.49,381.26c-2.45,0-4.21-0.64-5.26-1.93c-1.05-1.29-1.58-3.31-1.58-6.05v-34.8
				c0-0.42,0.19-0.63,0.58-0.63h3.74c0.39,0,0.58,0.21,0.58,0.63v34.49c0,1.27,0.22,2.15,0.67,2.63c0.45,0.49,1.16,0.73,2.13,0.73
				h1.11c0.39,0,0.58,0.21,0.58,0.63v3.68c0,0.42-0.2,0.63-0.58,0.63H122.49z"/>
			<path class="st8" d="M150.6,380.94c-0.39,0-0.7-0.21-0.94-0.63l-7.95-14.14l-4.85,6.15v7.99c0,0.42-0.2,0.63-0.58,0.63h-3.74
				c-0.39,0-0.58-0.21-0.58-0.63v-41.84c0-0.42,0.19-0.63,0.58-0.63h3.74c0.39,0,0.58,0.21,0.58,0.63v26.82l11.05-14.14
				c0.31-0.38,0.66-0.57,1.05-0.57h4.32c0.19,0,0.31,0.06,0.35,0.19c0.04,0.13,0,0.28-0.12,0.44l-8.59,10.84l10.35,18.26
				c0.08,0.13,0.09,0.26,0.03,0.41c-0.06,0.15-0.19,0.22-0.38,0.22H150.6z"/>
			<path class="st8" d="M179.42,380.94c-0.39,0-0.58-0.21-0.58-0.63v-2.85h-0.06c-0.74,1.27-1.74,2.28-3.01,3.04
				c-1.27,0.76-2.82,1.14-4.65,1.14c-3.08,0-5.46-1.05-7.16-3.14c-1.7-2.09-2.54-4.87-2.54-8.34v-18.96c0-0.42,0.19-0.63,0.58-0.63
				h3.74c0.39,0,0.58,0.21,0.58,0.63v17.69c0,2.49,0.51,4.42,1.52,5.77c1.01,1.35,2.57,2.03,4.68,2.03c1.91,0,3.44-0.68,4.59-2.03
				c1.15-1.35,1.72-3.17,1.72-5.45v-18c0-0.42,0.19-0.63,0.58-0.63h3.74c0.39,0,0.58,0.21,0.58,0.63v29.1c0,0.42-0.2,0.63-0.58,0.63
				H179.42z"/>
			<path class="st8" d="M201.45,381.26c-2.73,0-4.67-0.69-5.82-2.06c-1.15-1.37-1.72-3.56-1.72-6.56v-17.37
				c0-0.25-0.12-0.38-0.35-0.38h-2.34c-0.39,0-0.58-0.21-0.58-0.63v-3.04c0-0.42,0.19-0.63,0.58-0.63h2.34
				c0.23,0,0.35-0.13,0.35-0.38v-8.56c0-0.42,0.19-0.63,0.58-0.63h3.74c0.39,0,0.58,0.21,0.58,0.63v8.56c0,0.25,0.12,0.38,0.35,0.38
				h4.44c0.39,0,0.58,0.21,0.58,0.63v3.04c0,0.42-0.2,0.63-0.58,0.63h-4.44c-0.23,0-0.35,0.13-0.35,0.38v17.18
				c0,1.52,0.28,2.55,0.85,3.07c0.56,0.53,1.47,0.79,2.72,0.79h1.23c0.39,0,0.58,0.21,0.58,0.63v3.68c0,0.42-0.2,0.63-0.58,0.63
				H201.45z"/>
			<path class="st8" d="M219.92,381.26c-2.73,0-4.67-0.69-5.82-2.06c-1.15-1.37-1.72-3.56-1.72-6.56v-17.37
				c0-0.25-0.12-0.38-0.35-0.38h-2.34c-0.39,0-0.58-0.21-0.58-0.63v-3.04c0-0.42,0.19-0.63,0.58-0.63h2.34
				c0.23,0,0.35-0.13,0.35-0.38v-8.56c0-0.42,0.19-0.63,0.58-0.63h3.74c0.39,0,0.58,0.21,0.58,0.63v8.56c0,0.25,0.12,0.38,0.35,0.38
				h4.44c0.39,0,0.58,0.21,0.58,0.63v3.04c0,0.42-0.2,0.63-0.58,0.63h-4.44c-0.23,0-0.35,0.13-0.35,0.38v17.18
				c0,1.52,0.28,2.55,0.85,3.07c0.56,0.53,1.47,0.79,2.72,0.79h1.23c0.39,0,0.58,0.21,0.58,0.63v3.68c0,0.42-0.2,0.63-0.58,0.63
				H219.92z"/>
			<path class="st8" d="M247.21,380.94c-0.39,0-0.58-0.21-0.58-0.63v-2.66h-0.06c-0.66,1.14-1.68,2.09-3.04,2.85
				c-1.36,0.76-3.12,1.14-5.26,1.14c-1.33,0-2.56-0.19-3.71-0.57c-1.15-0.38-2.14-0.95-2.98-1.72c-0.84-0.76-1.5-1.72-1.99-2.86
				s-0.73-2.48-0.73-4.01c0-3.22,0.96-5.6,2.89-7.12c1.93-1.53,4.61-2.29,8.04-2.29h6.37c0.23,0,0.35-0.13,0.35-0.38v-2.2
				c0-2.1-0.47-3.61-1.4-4.53c-0.94-0.92-2.71-1.38-5.32-1.38c-1.6,0-2.92,0.2-3.97,0.6c-1.05,0.4-1.99,0.92-2.81,1.55
				c-0.35,0.3-0.62,0.28-0.82-0.06l-1.58-2.92c-0.16-0.34-0.12-0.63,0.12-0.89c1.05-0.89,2.38-1.61,3.97-2.16
				c1.6-0.55,3.45-0.82,5.55-0.82c3.97,0,6.79,0.79,8.45,2.38c1.66,1.58,2.48,4.24,2.48,7.96v20.1c0,0.42-0.19,0.63-0.58,0.63
				H247.21z M239.41,377.07c2.23,0,3.97-0.52,5.22-1.55c1.25-1.04,1.88-2.5,1.88-4.41v-3.36c0-0.25-0.12-0.38-0.35-0.38h-5.64
				c-2.47,0-4.25,0.39-5.34,1.17c-1.1,0.78-1.64,2.04-1.64,3.77c0,1.56,0.51,2.75,1.53,3.55
				C236.08,376.67,237.53,377.07,239.41,377.07z"/>
			<path class="st8" d="M261.18,380.94c-0.39,0-0.58-0.21-0.58-0.63v-41.84c0-0.42,0.19-0.63,0.58-0.63h3.74
				c0.39,0,0.58,0.21,0.58,0.63v15.6h0.06c0.66-1.23,1.63-2.23,2.89-3.01c1.27-0.78,2.95-1.17,5.06-1.17c2.45,0,4.5,0.61,6.14,1.84
				c1.64,1.23,2.81,3.04,3.51,5.45c0.39,1.23,0.65,2.48,0.79,3.77c0.14,1.29,0.21,2.88,0.21,4.79s-0.07,3.51-0.21,4.82
				c-0.14,1.31-0.4,2.58-0.79,3.8c-0.7,2.41-1.87,4.23-3.51,5.45s-3.68,1.84-6.14,1.84c-2.1,0-3.79-0.4-5.06-1.2
				c-1.27-0.8-2.23-1.82-2.89-3.04h-0.06v2.92c0,0.42-0.2,0.63-0.58,0.63H261.18z M272.35,376.69c3.12,0,5.16-1.54,6.14-4.63
				c0.23-0.8,0.4-1.71,0.5-2.73c0.1-1.01,0.15-2.22,0.15-3.61c0-1.35-0.05-2.54-0.15-3.55c-0.1-1.01-0.26-1.94-0.5-2.79
				c-0.97-3.04-3.02-4.56-6.14-4.56c-3.2,0-5.26,1.52-6.2,4.56c-0.23,0.76-0.4,1.63-0.5,2.6c-0.1,0.97-0.15,2.22-0.15,3.74
				s0.05,2.78,0.15,3.77c0.1,0.99,0.26,1.85,0.5,2.57C267.09,375.15,269.15,376.69,272.35,376.69z"/>
		</g>
	</g>
	<g>
		<g>
			<path class="st8" d="M102.05,277.91c0-1.4,0.45-2.59,1.34-3.58c0.9-0.99,1.99-1.49,3.27-1.49c1.29,0,2.39,0.5,3.3,1.49
				c0.92,0.99,1.37,2.19,1.37,3.58c0,1.39-0.46,2.58-1.37,3.55c-0.92,0.97-2.02,1.46-3.3,1.46c-1.29,0-2.38-0.49-3.27-1.46
				C102.49,280.49,102.05,279.31,102.05,277.91z M104.15,277.85c0,0.76,0.25,1.42,0.76,1.97c0.51,0.55,1.11,0.82,1.81,0.82
				s1.31-0.27,1.81-0.82c0.51-0.55,0.76-1.2,0.76-1.97s-0.25-1.42-0.76-1.97c-0.51-0.55-1.11-0.82-1.81-0.82s-1.31,0.28-1.81,0.82
				C104.4,276.43,104.15,277.09,104.15,277.85z"/>
			<path class="st8" d="M122.42,313.19c0.45-0.49,0.67-1.36,0.67-2.63v-16.99c0-0.42,0.19-0.63,0.58-0.63h3.74
				c0.39,0,0.58,0.21,0.58,0.63v17.31c0,2.75-0.53,4.77-1.58,6.05c-1.05,1.29-2.84,1.93-5.38,1.93H92.93
				c-2.45,0-4.21-0.64-5.26-1.93c-1.05-1.29-1.58-3.31-1.58-6.05v-13.25c0-0.42,0.19-0.63,0.58-0.63h3.74
				c0.39,0,0.58,0.21,0.58,0.63v12.93c0,1.27,0.22,2.15,0.67,2.63c0.45,0.49,1.16,0.73,2.13,0.73h26.42
				C121.24,313.92,121.97,313.68,122.42,313.19z M104.85,330.66c-0.39,0-0.58-0.21-0.58-0.63v-4.63c0-0.42,0.19-0.63,0.58-0.63h3.97
				c0.39,0,0.58,0.21,0.58,0.63v4.63c0,0.42-0.2,0.63-0.58,0.63H104.85z"/>
			<path class="st8" d="M135.42,276.39c0-0.42,0.19-0.63,0.58-0.63h3.74c0.39,0,0.58,0.21,0.58,0.63v34.17
				c0,1.27,0.22,2.15,0.67,2.63c0.45,0.49,1.16,0.73,2.13,0.73h2.57c1.56,0,2.34,0.85,2.34,2.54c0,1.06-0.19,1.72-0.56,2
				c-0.37,0.28-0.96,0.41-1.78,0.41h-3.45c-2.45,0-4.21-0.64-5.26-1.93c-1.05-1.29-1.58-3.31-1.58-6.05V276.39z"/>
			<path class="st8" d="M147.46,258.01c-0.39,0-0.58-0.21-0.58-0.63v-0.89c0-0.42,0.2-0.63,0.58-0.63h14.85
				c0.39,0,0.58,0.21,0.58,0.63v0.89c0,0.42-0.2,0.63-0.58,0.63H147.46z M147.64,261.94c0-0.42,0.2-0.63,0.58-0.63h1.05
				c0.39,0,0.58,0.21,0.58,0.63v4.69c0,0.8,0.19,1.43,0.56,1.87c0.37,0.44,0.87,0.67,1.49,0.67c0.62,0,1.12-0.2,1.49-0.6
				c0.37-0.4,0.56-0.96,0.56-1.68v-4.94c0-0.42,0.2-0.63,0.58-0.63h1.05c0.39,0,0.58,0.21,0.58,0.63v4.94
				c0,0.72,0.18,1.28,0.56,1.68c0.37,0.4,0.87,0.6,1.49,0.6c0.62,0,1.12-0.22,1.49-0.67c0.37-0.44,0.56-1.07,0.56-1.87v-4.69
				c0-0.42,0.19-0.63,0.58-0.63h1.05c0.39,0,0.58,0.21,0.58,0.63v4.5c0,1.48-0.38,2.68-1.14,3.61c-0.76,0.93-1.8,1.4-3.13,1.4
				c-1.36,0-2.42-0.46-3.16-1.4c-0.74,0.93-1.79,1.4-3.16,1.4c-1.32,0-2.37-0.46-3.13-1.4c-0.76-0.93-1.14-2.13-1.14-3.61V261.94z"
				/>
			<path class="st8" d="M146.12,318.87c-0.78,0-1.36-0.15-1.75-0.44c-0.39-0.29-0.58-0.89-0.58-1.77c0-1.06,0.19-1.77,0.56-2.16
				c0.37-0.38,0.96-0.57,1.78-0.57h3.97c0.97,0,1.68-0.24,2.13-0.73c0.45-0.49,0.67-1.36,0.67-2.63v-16.99
				c0-0.42,0.19-0.63,0.58-0.63h3.74c0.39,0,0.58,0.21,0.58,0.63v16.04c0,1.44,0.48,2.52,1.43,3.23c0.95,0.72,2.23,1.08,3.83,1.08
				h0.7c0.78,0,1.36,0.18,1.75,0.54c0.39,0.36,0.58,0.96,0.58,1.81c0,1.1-0.19,1.81-0.56,2.12c-0.37,0.32-0.96,0.48-1.78,0.48h-1.29
				c-1.25,0-2.34-0.27-3.27-0.82c-0.94-0.55-1.66-1.37-2.16-2.47c-0.97,2.2-3,3.3-6.08,3.3H146.12z M149.68,286.66
				c-0.39,0-0.58-0.21-0.58-0.63v-4.63c0-0.42,0.19-0.63,0.58-0.63h3.97c0.39,0,0.58,0.21,0.58,0.63v4.63c0,0.42-0.2,0.63-0.58,0.63
				H149.68z M156.81,286.66c-0.39,0-0.58-0.21-0.58-0.63v-4.63c0-0.42,0.19-0.63,0.58-0.63h3.97c0.39,0,0.58,0.21,0.58,0.63v4.63
				c0,0.42-0.2,0.63-0.58,0.63H156.81z"/>
			<path class="st8" d="M163.83,318.87c-0.78,0-1.31-0.18-1.58-0.54c-0.27-0.36-0.41-0.98-0.41-1.87c0-1.06,0.13-1.74,0.38-2.06
				c0.25-0.32,0.79-0.48,1.61-0.48h6.43c0.78,0,1.36,0.17,1.75,0.51c0.39,0.34,0.58,0.95,0.58,1.84c0,1.06-0.19,1.75-0.56,2.09
				c-0.37,0.34-0.96,0.51-1.78,0.51H163.83z"/>
			<path class="st8" d="M170.31,318.87c-0.78,0-1.31-0.18-1.58-0.54c-0.27-0.36-0.41-0.98-0.41-1.87c0-1.06,0.13-1.74,0.38-2.06
				c0.25-0.32,0.79-0.48,1.61-0.48h6.43c0.78,0,1.36,0.17,1.75,0.51c0.39,0.34,0.58,0.95,0.58,1.84c0,1.06-0.19,1.75-0.56,2.09
				c-0.37,0.34-0.96,0.51-1.78,0.51H170.31z"/>
			<path class="st8" d="M176.8,318.87c-0.78,0-1.31-0.18-1.58-0.54c-0.27-0.36-0.41-0.98-0.41-1.87c0-1.06,0.13-1.74,0.38-2.06
				c0.25-0.32,0.79-0.48,1.61-0.48h6.43c0.78,0,1.36,0.17,1.75,0.51c0.39,0.34,0.58,0.95,0.58,1.84c0,1.06-0.19,1.75-0.56,2.09
				c-0.37,0.34-0.96,0.51-1.78,0.51H176.8z"/>
			<path class="st8" d="M183.29,318.87c-0.78,0-1.31-0.18-1.58-0.54c-0.27-0.36-0.41-0.98-0.41-1.87c0-1.06,0.13-1.74,0.38-2.06
				c0.25-0.32,0.79-0.48,1.61-0.48h6.43c0.78,0,1.36,0.17,1.75,0.51c0.39,0.34,0.58,0.95,0.58,1.84c0,1.06-0.18,1.75-0.55,2.09
				c-0.37,0.34-0.96,0.51-1.78,0.51H183.29z"/>
			<path class="st8" d="M189.78,318.87c-0.78,0-1.31-0.18-1.58-0.54c-0.27-0.36-0.41-0.98-0.41-1.87c0-1.06,0.13-1.74,0.38-2.06
				c0.25-0.32,0.79-0.48,1.61-0.48h6.43c0.78,0,1.36,0.17,1.75,0.51c0.39,0.34,0.58,0.95,0.58,1.84c0,1.06-0.18,1.75-0.55,2.09
				c-0.37,0.34-0.96,0.51-1.78,0.51H189.78z"/>
			<path class="st8" d="M196.26,318.87c-0.78,0-1.3-0.18-1.58-0.54c-0.27-0.36-0.41-0.98-0.41-1.87c0-1.06,0.13-1.74,0.38-2.06
				c0.25-0.32,0.79-0.48,1.61-0.48h6.43c0.78,0,1.36,0.17,1.75,0.51c0.39,0.34,0.58,0.95,0.58,1.84c0,1.06-0.18,1.75-0.55,2.09
				c-0.37,0.34-0.96,0.51-1.78,0.51H196.26z"/>
			<path class="st8" d="M202.75,318.87c-0.78,0-1.3-0.18-1.58-0.54c-0.27-0.36-0.41-0.98-0.41-1.87c0-1.06,0.13-1.74,0.38-2.06
				c0.25-0.32,0.79-0.48,1.61-0.48h6.43c0.78,0,1.36,0.17,1.75,0.51c0.39,0.34,0.58,0.95,0.58,1.84c0,1.06-0.18,1.75-0.55,2.09
				c-0.37,0.34-0.96,0.51-1.78,0.51H202.75z"/>
			<path class="st8" d="M209.24,318.87c-0.78,0-1.3-0.18-1.58-0.54c-0.27-0.36-0.41-0.98-0.41-1.87c0-1.06,0.13-1.74,0.38-2.06
				c0.25-0.32,0.79-0.48,1.61-0.48h6.43c0.78,0,1.36,0.17,1.75,0.51c0.39,0.34,0.58,0.95,0.58,1.84c0,1.06-0.18,1.75-0.55,2.09
				c-0.37,0.34-0.96,0.51-1.78,0.51H209.24z"/>
			<path class="st8" d="M215.73,318.87c-0.78,0-1.3-0.18-1.58-0.54c-0.27-0.36-0.41-0.98-0.41-1.87c0-1.06,0.13-1.74,0.38-2.06
				c0.25-0.32,0.79-0.48,1.61-0.48h6.43c0.78,0,1.36,0.17,1.75,0.51c0.39,0.34,0.58,0.95,0.58,1.84c0,1.06-0.18,1.75-0.55,2.09
				c-0.37,0.34-0.96,0.51-1.78,0.51H215.73z"/>
			<path class="st8" d="M222.21,318.87c-0.78,0-1.3-0.18-1.58-0.54c-0.27-0.36-0.41-0.98-0.41-1.87c0-1.06,0.13-1.74,0.38-2.06
				c0.25-0.32,0.79-0.48,1.61-0.48h6.43c0.78,0,1.36,0.17,1.75,0.51c0.39,0.34,0.58,0.95,0.58,1.84c0,1.06-0.18,1.75-0.55,2.09
				c-0.37,0.34-0.96,0.51-1.78,0.51H222.21z"/>
			<path class="st8" d="M234.55,269.54c0.86,0,1.57-0.1,2.13-0.29c0.57-0.19,1.03-0.41,1.4-0.67c0.37-0.25,0.65-0.54,0.85-0.86
				c0.19-0.32,0.33-0.6,0.41-0.86h-1.93c-1.32,0-2.37-0.38-3.13-1.14s-1.14-1.8-1.14-3.11c0-1.35,0.42-2.48,1.26-3.39
				c0.84-0.91,1.86-1.36,3.07-1.36c1.25,0,2.29,0.46,3.13,1.36c0.84,0.91,1.26,2.38,1.26,4.41c0,1.52-0.19,2.8-0.56,3.84
				c-0.37,1.04-0.88,1.87-1.52,2.5c-0.64,0.63-1.41,1.08-2.31,1.33c-0.9,0.25-1.87,0.38-2.92,0.38h-1.64
				c-0.39,0-0.58-0.21-0.58-0.63v-0.89c0-0.42,0.2-0.63,0.58-0.63H234.55z M239.75,264.79c0.04-0.17,0.06-0.36,0.06-0.57
				c0-0.21,0-0.4,0-0.57c0-1.18-0.22-2.08-0.67-2.69c-0.45-0.61-1-0.92-1.67-0.92c-0.78,0-1.35,0.29-1.72,0.86
				c-0.37,0.57-0.55,1.15-0.55,1.74c0,0.42,0.09,0.77,0.26,1.05c0.18,0.28,0.4,0.5,0.67,0.67c0.27,0.17,0.55,0.29,0.82,0.35
				c0.27,0.06,0.53,0.1,0.76,0.1H239.75z"/>
			<path class="st8" d="M238.99,292.94h5.2c2.96,0,5.39,0.91,7.28,2.73c1.89,1.82,2.83,4.67,2.83,8.56v3.8
				c0,0.34-0.01,0.68-0.03,1.01c-0.02,0.34-0.03,0.68-0.03,1.01c0.08,1.31,0.59,2.28,1.55,2.92c0.95,0.63,2.19,0.95,3.71,0.95h0.64
				c0.78,0,1.36,0.18,1.75,0.54c0.39,0.36,0.58,0.96,0.58,1.81c0,1.1-0.18,1.81-0.55,2.12c-0.37,0.32-0.96,0.48-1.78,0.48h-1.23
				c-1.29,0-2.47-0.31-3.54-0.92c-1.07-0.61-1.83-1.51-2.26-2.69c-0.67,1.35-1.59,2.29-2.78,2.82c-1.18,0.53-2.69,0.79-4.52,0.79
				h-17.18c-1.56,0-2.34-0.84-2.34-2.54c0-1.06,0.19-1.72,0.56-2c0.37-0.27,0.96-0.41,1.78-0.41h15.37c1.09,0,1.97-0.1,2.63-0.29
				c0.66-0.19,1.17-0.51,1.52-0.95s0.58-1.02,0.7-1.74c0.12-0.72,0.18-1.63,0.18-2.73v-3.93c0-4.27-2.22-6.4-6.66-6.4h-9.41
				c-0.39,0-0.58-0.21-0.58-0.63v-3.55c0-0.21,0.07-0.41,0.21-0.6c0.14-0.19,0.24-0.33,0.32-0.41l12.8-16.36
				c0.23-0.3,0.49-0.36,0.76-0.19l2.81,2.54c0.32,0.25,0.39,0.55,0.24,0.89L238.99,292.94z"/>
			<path class="st8" d="M260.09,318.87c-0.78,0-1.36-0.15-1.75-0.44c-0.39-0.29-0.58-0.89-0.58-1.77c0-1.06,0.19-1.77,0.56-2.16
				s0.96-0.57,1.78-0.57h3.68c0.97,0,1.68-0.24,2.13-0.73c0.45-0.49,0.67-1.36,0.67-2.63v-34.17c0-0.42,0.2-0.63,0.58-0.63h3.74
				c0.39,0,0.58,0.21,0.58,0.63v34.49c0,2.75-0.53,4.77-1.58,6.05c-1.05,1.29-2.81,1.93-5.26,1.93H260.09z"/>
			<path class="st8" d="M284.58,318.23c0,0.42-0.2,0.63-0.58,0.63h-3.74c-0.39,0-0.58-0.21-0.58-0.63v-41.84
				c0-0.42,0.19-0.63,0.58-0.63h3.74c0.39,0,0.58,0.21,0.58,0.63V318.23z"/>
		</g>
	</g>
</g>
</svg>
